<?xml version="1.0" encoding="UTF-8"?>
<!DOCTYPE svg PUBLIC "-//W3C//DTD SVG 1.1//EN" "http://www.w3.org/Graphics/SVG/1.1/DTD/svg11.dtd">
<svg xmlns="http://www.w3.org/2000/svg" version="1.1" width="135px" height="168px" style="shape-rendering:geometricPrecision; text-rendering:geometricPrecision; image-rendering:optimizeQuality; fill-rule:evenodd; clip-rule:evenodd" xmlns:xlink="http://www.w3.org/1999/xlink">
<g><path style="opacity:0.589" fill="#f2f2f1" d="M 101.5,15.5 C 93.1218,9.69292 85.2885,10.3596 78,17.5C 75.9711,20.5524 74.8044,23.8857 74.5,27.5C 75.0773,29.8093 75.0773,31.9759 74.5,34C 76.5,36.6667 78.5,39.3333 80.5,42C 79.7562,43.0386 78.7562,43.5386 77.5,43.5C 74.6097,42.1011 73.1097,39.7677 73,36.5C 69.4669,13.3518 78.6336,5.5185 100.5,13C 101.252,13.6708 101.586,14.5041 101.5,15.5 Z"/></g>
<g><path style="opacity:0.876" fill="#f7f6f6" d="M 101.5,15.5 C 102.315,16.4293 103.148,17.4293 104,18.5C 104.667,25.1667 104.667,31.8333 104,38.5C 98.8789,46.2086 91.7123,48.7086 82.5,46C 80.6854,45.2432 79.0188,44.4098 77.5,43.5C 78.7562,43.5386 79.7562,43.0386 80.5,42C 78.5,39.3333 76.5,36.6667 74.5,34C 75.0773,31.9759 75.0773,29.8093 74.5,27.5C 74.8044,23.8857 75.9711,20.5524 78,17.5C 85.2885,10.3596 93.1218,9.69292 101.5,15.5 Z M 89.5,17.5 C 92.09,18.1283 94.4234,19.295 96.5,21C 96.5416,25.2989 96.3749,29.7989 96,34.5C 93.6414,39.1039 90.1414,40.4372 85.5,38.5C 84.2794,37.9717 83.1127,37.305 82,36.5C 80.9085,32.2028 80.5752,27.8695 81,23.5C 81.2735,21.6711 82.1068,20.1711 83.5,19C 85.7078,18.8091 87.7078,18.3091 89.5,17.5 Z"/></g>
<g><path style="opacity:0.829" fill="#fafaf9" d="M 89.5,17.5 C 95.0708,16.7122 99.2375,19.0455 102,24.5C 103.594,35.2243 99.0939,40.7243 88.5,41C 87.0577,40.6232 86.0577,39.7899 85.5,38.5C 90.1414,40.4372 93.6414,39.1039 96,34.5C 96.3749,29.7989 96.5416,25.2989 96.5,21C 94.4234,19.295 92.09,18.1283 89.5,17.5 Z"/></g>
<g><path style="opacity:0.87" fill="#f7f7f6" d="M 100.5,52.5 C 99.448,52.3505 98.448,52.5172 97.5,53C 99.2273,54.3894 100.561,56.0561 101.5,58C 101.396,63.1499 101.063,68.3166 100.5,73.5C 100.516,75.516 101.516,76.516 103.5,76.5C 102.557,79.1092 100.89,81.1092 98.5,82.5C 95.386,81.2909 92.7193,79.6242 90.5,77.5C 92.8211,77.3417 94.6545,76.3417 96,74.5C 96.6667,69.5 96.6667,64.5 96,59.5C 95.2798,57.9443 94.1132,56.9443 92.5,56.5C 89.4686,54.3089 86.1352,53.9755 82.5,55.5C 81.2267,56.2565 81.2267,56.9232 82.5,57.5C 80.2344,63.3074 79.9011,69.3074 81.5,75.5C 81.5743,77.4109 82.5743,78.5776 84.5,79C 81.7187,79.5218 79.3854,80.6885 77.5,82.5C 73.0427,77.0562 71.376,70.7228 72.5,63.5C 73.3636,62.3117 74.3636,61.1451 75.5,60C 73.4873,59.1247 73.4873,57.7913 75.5,56C 74.944,55.6174 74.6107,55.1174 74.5,54.5C 77.9791,49.9986 82.6457,47.9986 88.5,48.5C 93.1704,48.1849 97.1704,49.5182 100.5,52.5 Z M 92.5,56.5 C 94.1132,56.9443 95.2798,57.9443 96,59.5C 96.6667,64.5 96.6667,69.5 96,74.5C 94.6545,76.3417 92.8211,77.3417 90.5,77.5C 87.2457,77.7931 84.2457,77.1264 81.5,75.5C 79.9011,69.3074 80.2344,63.3074 82.5,57.5C 85.7808,55.8296 89.1142,55.4963 92.5,56.5 Z"/></g>
<g><path style="opacity:0.029" fill="#fefffe" d="M 134.5,49.5 C 134.5,50.1667 134.5,50.8333 134.5,51.5C 130.551,49.4424 130.551,48.7757 134.5,49.5 Z"/></g>
<g><path style="opacity:0.907" fill="#f1f0ef" d="M 32.5,49.5 C 37.5512,55.436 38.7178,62.1027 36,69.5C 35.5831,70.756 34.7498,71.4226 33.5,71.5C 33.6655,67.4862 33.4988,63.4862 33,59.5C 32.2917,58.6195 31.4584,57.9528 30.5,57.5C 29.7142,55.2649 28.0476,54.2649 25.5,54.5C 22.9524,54.2649 21.2858,55.2649 20.5,57.5C 19.828,58.2674 18.9947,58.9341 18,59.5C 17.5017,62.8168 17.335,66.1501 17.5,69.5C 14.3073,64.9692 13.6407,59.9692 15.5,54.5C 16.9143,52.082 18.9143,50.4153 21.5,49.5C 25.083,48.9167 28.7497,48.9167 32.5,49.5 Z"/></g>
<g><path style="opacity:0.785" fill="#ecebe9" d="M 21.5,49.5 C 18.9143,50.4153 16.9143,52.082 15.5,54.5C 13.1716,56.1661 12.1716,58.4995 12.5,61.5C 12.2811,65.8794 13.9477,69.2127 17.5,71.5C 17.5,72.5 17.5,73.5 17.5,74.5C 16.2794,73.9717 15.1127,73.305 14,72.5C 12.4758,70.1019 10.9758,67.7686 9.5,65.5C 8.2199,56.0197 12.2199,50.6864 21.5,49.5 Z"/></g>
<g><path style="opacity:0.723" fill="#ebeae9" d="M 37.5,52.5 C 39.6943,54.2214 40.861,56.5547 41,59.5C 41.7684,63.9196 41.6018,68.2529 40.5,72.5C 34.9934,79.7205 27.9934,81.3871 19.5,77.5C 18.7025,77.0431 18.3691,76.3764 18.5,75.5C 22.7787,77.6601 27.1121,77.8268 31.5,76C 32.3805,75.2917 33.0472,74.4584 33.5,73.5C 36.091,72.7457 37.9243,71.079 39,68.5C 39.9299,62.9856 39.4299,57.6523 37.5,52.5 Z"/></g>
<g><path style="opacity:1" fill="#eeedec" d="M 32.5,49.5 C 34.9328,49.2729 36.5994,50.2729 37.5,52.5C 39.4299,57.6523 39.9299,62.9856 39,68.5C 37.9243,71.079 36.091,72.7457 33.5,73.5C 33.5,72.8333 33.5,72.1667 33.5,71.5C 34.7498,71.4226 35.5831,70.756 36,69.5C 38.7178,62.1027 37.5512,55.436 32.5,49.5 Z"/></g>
<g><path style="opacity:0.94" fill="#eeeeec" d="M 15.5,54.5 C 13.6407,59.9692 14.3073,64.9692 17.5,69.5C 17.5,70.1667 17.5,70.8333 17.5,71.5C 13.9477,69.2127 12.2811,65.8794 12.5,61.5C 12.1716,58.4995 13.1716,56.1661 15.5,54.5 Z"/></g>
<g><path style="opacity:0.525" fill="#f4f2f2" d="M 30.5,57.5 C 27.1667,56.1667 23.8333,56.1667 20.5,57.5C 21.2858,55.2649 22.9524,54.2649 25.5,54.5C 28.0476,54.2649 29.7142,55.2649 30.5,57.5 Z"/></g>
<g><path style="opacity:0.738" fill="#faf9f7" d="M 92.5,56.5 C 89.1142,55.4963 85.7808,55.8296 82.5,57.5C 81.2267,56.9232 81.2267,56.2565 82.5,55.5C 86.1352,53.9755 89.4686,54.3089 92.5,56.5 Z"/></g>
<g><path style="opacity:0.673" fill="#f2f2f1" d="M 100.5,52.5 C 102.339,53.5077 103.672,55.0077 104.5,57C 104.771,63.4757 104.437,69.9757 103.5,76.5C 101.516,76.516 100.516,75.516 100.5,73.5C 101.063,68.3166 101.396,63.1499 101.5,58C 100.561,56.0561 99.2273,54.3894 97.5,53C 98.448,52.5172 99.448,52.3505 100.5,52.5 Z"/></g>
<g><path style="opacity:0.159" fill="#f3f2f2" d="M 74.5,54.5 C 74.6107,55.1174 74.944,55.6174 75.5,56C 73.4873,57.7913 73.4873,59.1247 75.5,60C 74.3636,61.1451 73.3636,62.3117 72.5,63.5C 72.2153,60.1709 72.8819,57.1709 74.5,54.5 Z"/></g>
<g><path style="opacity:0.881" fill="#e5e4e2" d="M 9.5,69.5 C 12.6387,73.4702 16.3053,76.9702 20.5,80C 25.9437,81.3532 31.2771,81.8532 36.5,81.5C 34.081,83.8624 31.081,84.8624 27.5,84.5C 20.6411,83.6166 14.9745,80.6166 10.5,75.5C 9.65859,73.6208 9.32526,71.6208 9.5,69.5 Z"/></g>
<g><path style="opacity:0.623" fill="#e8e7e5" d="M 9.5,65.5 C 10.9758,67.7686 12.4758,70.1019 14,72.5C 15.1127,73.305 16.2794,73.9717 17.5,74.5C 17.5,75.1667 17.8333,75.5 18.5,75.5C 18.3691,76.3764 18.7025,77.0431 19.5,77.5C 27.9934,81.3871 34.9934,79.7205 40.5,72.5C 41.0391,76.4157 39.7058,79.4157 36.5,81.5C 31.2771,81.8532 25.9437,81.3532 20.5,80C 16.3053,76.9702 12.6387,73.4702 9.5,69.5C 9.5,68.1667 9.5,66.8333 9.5,65.5 Z"/></g>
<g><path style="opacity:0.013" fill="#fefffe" d="M 4.5,78.5 C 4.89657,77.475 5.56323,77.3083 6.5,78C 8.00744,78.8373 8.50744,80.0039 8,81.5C 6.9609,80.2899 5.79423,79.2899 4.5,78.5 Z"/></g>
<g><path style="opacity:0.877" fill="#fafafa" d="M 81.5,75.5 C 84.2457,77.1264 87.2457,77.7931 90.5,77.5C 92.7193,79.6242 95.386,81.2909 98.5,82.5C 98.0825,83.2216 97.4158,83.7216 96.5,84C 94,84.1667 91.5,84.3333 89,84.5C 85.7934,84.0721 82.7934,84.0721 80,84.5C 79.0053,83.9341 78.172,83.2674 77.5,82.5C 79.3854,80.6885 81.7187,79.5218 84.5,79C 82.5743,78.5776 81.5743,77.4109 81.5,75.5 Z"/></g>
<g><path style="opacity:0.615" fill="#e2e0de" d="M 10.5,75.5 C 14.9745,80.6166 20.6411,83.6166 27.5,84.5C 21.2798,85.8082 15.7798,84.1415 11,79.5C 10.51,78.2068 10.3433,76.8734 10.5,75.5 Z"/></g>
<g><path style="opacity:0.016" fill="#fefffe" d="M 55.5,84.5 C 57.2884,83.3775 59.2884,83.2109 61.5,84C 59.5273,84.4955 57.5273,84.6621 55.5,84.5 Z"/></g>
<g><path style="opacity:0.884" fill="#e4e3e3" d="M 54.5,86.5 C 53.222,89.2672 52.5553,91.9339 52.5,94.5C 51.8333,94.5 51.1667,94.5 50.5,94.5C 51.2684,92.089 51.6018,89.7556 51.5,87.5C 52.209,86.596 53.209,86.2627 54.5,86.5 Z"/></g>
<g><path style="opacity:0.889" fill="#e8e7e5" d="M 54.5,86.5 C 55.4916,86.3284 56.1583,86.6618 56.5,87.5C 57.9885,89.6451 58.9885,91.9785 59.5,94.5C 57.1667,94.5 54.8333,94.5 52.5,94.5C 52.5553,91.9339 53.222,89.2672 54.5,86.5 Z"/></g>
<g><path style="opacity:0.825" fill="#fbfbfa" d="M 97.5,88.5 C 97.3417,90.8211 96.3417,92.6545 94.5,94C 95.2524,94.6708 95.5858,95.5041 95.5,96.5C 94.2794,95.9717 93.1127,95.305 92,94.5C 89.6667,94.5 87.3333,94.5 85,94.5C 83.6244,95.7051 82.4577,97.0384 81.5,98.5C 79.9697,96.1732 78.3031,93.8399 76.5,91.5C 76.9528,90.5416 77.6195,89.7083 78.5,89C 84.7723,85.9229 91.1056,85.7562 97.5,88.5 Z"/></g>
<g><path style="opacity:0.81" fill="#ecebea" d="M 56.5,87.5 C 59.0593,87.1984 61.3926,87.5318 63.5,88.5C 61.7528,93.0236 62.9195,96.6903 67,99.5C 67.4935,101.134 67.6602,102.801 67.5,104.5C 68.5,104.5 69.5,104.5 70.5,104.5C 70.7845,106.415 70.4511,108.081 69.5,109.5C 67.7865,106.787 65.4532,104.787 62.5,103.5C 62.8519,99.9369 61.8519,96.9369 59.5,94.5C 58.9885,91.9785 57.9885,89.6451 56.5,87.5 Z"/></g>
<g><path style="opacity:0.844" fill="#f7f6f6" d="M 97.5,88.5 C 100.107,89.7122 101.774,91.7122 102.5,94.5C 102.196,99.1264 100.196,102.793 96.5,105.5C 96.4233,102.142 96.09,99.1424 95.5,96.5C 95.5858,95.5041 95.2524,94.6708 94.5,94C 96.3417,92.6545 97.3417,90.8211 97.5,88.5 Z"/></g>
<g><path style="opacity:0.88" fill="#e2e0de" d="M 51.5,87.5 C 51.6018,89.7556 51.2684,92.089 50.5,94.5C 47.4828,98.2153 46.1495,102.549 46.5,107.5C 43.977,106.199 41.3103,105.199 38.5,104.5C 37.2704,94.4124 41.6038,88.7457 51.5,87.5 Z"/></g>
<g><path style="opacity:0.808" fill="#f1f0ef" d="M 63.5,88.5 C 69.1191,92.2096 71.4524,97.543 70.5,104.5C 69.5,104.5 68.5,104.5 67.5,104.5C 67.6602,102.801 67.4935,101.134 67,99.5C 62.9195,96.6903 61.7528,93.0236 63.5,88.5 Z"/></g>
<g><path style="opacity:0.848" fill="#f6f6f6" d="M 76.5,91.5 C 78.3031,93.8399 79.9697,96.1732 81.5,98.5C 80.5975,101.391 80.2641,104.391 80.5,107.5C 78.5475,106.374 77.0475,104.708 76,102.5C 75.6667,102.833 75.3333,103.167 75,103.5C 74.2917,102.619 73.4584,101.953 72.5,101.5C 72.6347,97.5698 73.9681,94.2365 76.5,91.5 Z"/></g>
<g><path style="opacity:0.843" fill="#f2f1f0" d="M 102.5,94.5 C 103.738,96.2143 104.405,98.2143 104.5,100.5C 102.269,103.281 100.269,106.281 98.5,109.5C 98.1583,110.338 97.4916,110.672 96.5,110.5C 96.5,108.833 96.5,107.167 96.5,105.5C 100.196,102.793 102.196,99.1264 102.5,94.5 Z"/></g>
<g><path style="opacity:0.903" fill="#e9e7e5" d="M 62.5,103.5 C 65.4532,104.787 67.7865,106.787 69.5,109.5C 69.5,110.5 69.5,111.5 69.5,112.5C 68.8333,112.5 68.1667,112.5 67.5,112.5C 66.5806,109.911 64.914,107.911 62.5,106.5C 62.5,105.5 62.5,104.5 62.5,103.5 Z"/></g>
<g><path style="opacity:1" fill="#eeedec" d="M 104.5,100.5 C 104.5,101.833 104.5,103.167 104.5,104.5C 103.115,106.883 101.115,108.55 98.5,109.5C 100.269,106.281 102.269,103.281 104.5,100.5 Z"/></g>
<g><path style="opacity:0.881" fill="#f1f0ef" d="M 72.5,101.5 C 73.4584,101.953 74.2917,102.619 75,103.5C 75.3333,103.167 75.6667,102.833 76,102.5C 77.0475,104.708 78.5475,106.374 80.5,107.5C 80.5,108.833 80.5,110.167 80.5,111.5C 79.0597,110.637 77.7264,110.637 76.5,111.5C 75.1482,110.476 73.8149,109.476 72.5,108.5C 72.5,106.167 72.5,103.833 72.5,101.5 Z"/></g>
<g><path style="opacity:0.924" fill="#dfddda" d="M 38.5,104.5 C 41.3103,105.199 43.977,106.199 46.5,107.5C 46.5,109.167 46.5,110.833 46.5,112.5C 43.7334,112.142 41.0667,111.475 38.5,110.5C 38.5,108.5 38.5,106.5 38.5,104.5 Z"/></g>
<g><path style="opacity:0.789" fill="#e5e4e2" d="M 62.5,106.5 C 64.914,107.911 66.5806,109.911 67.5,112.5C 65.4862,112.608 63.8195,111.942 62.5,110.5C 62.5,109.167 62.5,107.833 62.5,106.5 Z"/></g>
<g><path style="opacity:0.715" fill="#eceae9" d="M 72.5,108.5 C 73.8149,109.476 75.1482,110.476 76.5,111.5C 77.7264,110.637 79.0597,110.637 80.5,111.5C 82.2367,113.88 84.57,115.547 87.5,116.5C 90.0956,115.518 92.7623,114.851 95.5,114.5C 89.8115,118.22 83.9782,118.22 78,114.5C 76.2894,115.581 74.7894,115.248 73.5,113.5C 72.6993,111.958 72.366,110.292 72.5,108.5 Z"/></g>
<g><path style="opacity:0.931" fill="#e5e4e1" d="M 104.5,110.5 C 104.741,112.898 104.074,114.898 102.5,116.5C 98.9698,118.511 95.3031,120.345 91.5,122C 88.1832,122.498 84.8499,122.665 81.5,122.5C 78.2678,122.228 76.2678,120.562 75.5,117.5C 78.987,116.086 80.987,116.919 81.5,120C 87.0688,120.776 92.4022,119.943 97.5,117.5C 99.5211,114.812 101.854,112.479 104.5,110.5 Z"/></g>
<g><path style="opacity:0.741" fill="#e5e4e2" d="M 67.5,112.5 C 68.1667,112.5 68.8333,112.5 69.5,112.5C 69.9258,113.528 69.9258,114.861 69.5,116.5C 66.8758,115.924 66.2092,114.59 67.5,112.5 Z"/></g>
<g><path style="opacity:1" fill="#e9e8e6" d="M 104.5,104.5 C 104.5,106.5 104.5,108.5 104.5,110.5C 101.854,112.479 99.5211,114.812 97.5,117.5C 92.4022,119.943 87.0688,120.776 81.5,120C 80.987,116.919 78.987,116.086 75.5,117.5C 74.3263,116.486 73.6596,115.153 73.5,113.5C 74.7894,115.248 76.2894,115.581 78,114.5C 83.9782,118.22 89.8115,118.22 95.5,114.5C 95.8333,113.167 96.1667,111.833 96.5,110.5C 97.4916,110.672 98.1583,110.338 98.5,109.5C 101.115,108.55 103.115,106.883 104.5,104.5 Z"/></g>
<g><path style="opacity:0.718" fill="#dad8d5" d="M 38.5,110.5 C 41.0667,111.475 43.7334,112.142 46.5,112.5C 48.6845,114.585 51.3511,115.585 54.5,115.5C 49.6446,116.691 44.6446,116.691 39.5,115.5C 38.5489,114.081 38.2155,112.415 38.5,110.5 Z"/></g>
<g><path style="opacity:0.879" fill="#dedbd8" d="M 60.5,114.5 C 63.3263,114.998 65.6597,116.331 67.5,118.5C 65.8791,120.942 63.5458,122.275 60.5,122.5C 60.573,120.973 59.9063,119.973 58.5,119.5C 57.8333,118.167 57.1667,116.833 56.5,115.5C 57.8333,115.167 59.1667,114.833 60.5,114.5 Z"/></g>
<g><path style="opacity:1" fill="#e1dfdd" d="M 62.5,110.5 C 63.8195,111.942 65.4862,112.608 67.5,112.5C 66.2092,114.59 66.8758,115.924 69.5,116.5C 69.1667,117.5 68.5,118.167 67.5,118.5C 65.6597,116.331 63.3263,114.998 60.5,114.5C 61.6005,113.395 62.2671,112.062 62.5,110.5 Z"/></g>
<g><path style="opacity:0.934" fill="#d8d5d2" d="M 39.5,115.5 C 44.6446,116.691 49.6446,116.691 54.5,115.5C 55.1667,115.5 55.8333,115.5 56.5,115.5C 57.1667,116.833 57.8333,118.167 58.5,119.5C 53.0994,120.767 47.766,120.767 42.5,119.5C 41.5116,118.205 40.5116,116.872 39.5,115.5 Z"/></g>
<g><path style="opacity:0.595" fill="#e3e1df" d="M 102.5,116.5 C 101.785,118.755 100.452,120.588 98.5,122C 95.0438,123.041 91.5438,123.875 88,124.5C 85.5161,124.503 83.3495,123.837 81.5,122.5C 84.8499,122.665 88.1832,122.498 91.5,122C 95.3031,120.345 98.9698,118.511 102.5,116.5 Z"/></g>
<g><path style="opacity:0.881" fill="#d5d2cf" d="M 42.5,119.5 C 47.766,120.767 53.0994,120.767 58.5,119.5C 59.9063,119.973 60.573,120.973 60.5,122.5C 60.0825,123.222 59.4158,123.722 58.5,124C 55.8333,124.667 53.1667,124.667 50.5,124C 47.6519,123.396 44.9853,121.896 42.5,119.5 Z"/></g>
<g><path style="opacity:0.873" fill="#dedcd9" d="M 101.5,129.5 C 99.1024,131.974 96.1024,133.308 92.5,133.5C 89.7444,132.746 87.0777,132.746 84.5,133.5C 83.5,132.167 82.5,132.167 81.5,133.5C 79.4261,132.486 77.4261,131.486 75.5,130.5C 83.8864,124.214 92.553,123.881 101.5,129.5 Z"/></g>
<g><path style="opacity:0.892" fill="#d8d5d2" d="M 101.5,129.5 C 102.41,131.019 103.243,132.685 104,134.5C 104.336,141.119 104.503,147.619 104.5,154C 100.777,160.525 95.1098,163.358 87.5,162.5C 81.9644,162.124 77.4644,159.791 74,155.5C 72.4492,148.582 72.1158,141.582 73,134.5C 73.6082,132.934 74.4415,131.6 75.5,130.5C 77.4261,131.486 79.4261,132.486 81.5,133.5C 77.1272,137.458 75.2938,142.458 76,148.5C 79.4083,154.042 84.4083,157.042 91,157.5C 99.4847,154.434 102.485,148.434 100,139.5C 98.5315,138.011 97.0315,136.677 95.5,135.5C 94.5,134.833 93.5,134.167 92.5,133.5C 96.1024,133.308 99.1024,131.974 101.5,129.5 Z M 92.5,133.5 C 93.5,134.167 94.5,134.833 95.5,135.5C 96.5668,140.782 96.7335,146.115 96,151.5C 86.7102,157.358 81.5436,155.025 80.5,144.5C 79.9125,140.03 81.2459,136.363 84.5,133.5C 87.0777,132.746 89.7444,132.746 92.5,133.5 Z"/></g>
<g><path style="opacity:0.629" fill="#dad8d5" d="M 84.5,133.5 C 81.2459,136.363 79.9125,140.03 80.5,144.5C 81.5436,155.025 86.7102,157.358 96,151.5C 96.7335,146.115 96.5668,140.782 95.5,135.5C 97.0315,136.677 98.5315,138.011 100,139.5C 102.485,148.434 99.4847,154.434 91,157.5C 84.4083,157.042 79.4083,154.042 76,148.5C 75.2938,142.458 77.1272,137.458 81.5,133.5C 82.5,132.167 83.5,132.167 84.5,133.5 Z"/></g>
</svg>
